Coordinates
version=1
nRows=14
nColumns=36
inDegrees=yes

Units are S.I. units (second, meters, Newtons, ...)
If the header above contains a line with 'inDegrees', this indicates whether rotational values are in degrees (yes) or radians (no).

endheader
time	pelvis_tilt	pelvis_list	pelvis_rotation	pelvis_tx	pelvis_ty	pelvis_tz	hip_flexion_r	hip_adduction_r	hip_rotation_r	knee_angle_r	knee_angle_r_beta	ankle_angle_r	subtalar_angle_r	mtp_angle_r	hip_flexion_l	hip_adduction_l	hip_rotation_l	knee_angle_l	knee_angle_l_beta	ankle_angle_l	subtalar_angle_l	mtp_angle_l	lumbar_extension	lumbar_bending	lumbar_rotation	arm_flex_r	arm_add_r	arm_rot_r	elbow_flex_r	pro_sup_r	arm_flex_l	arm_add_l	arm_rot_l	elbow_flex_l	pro_sup_l
      0.00000000	     -1.93948618	     -4.27517623	    -48.98921804	      0.96467154	      0.93826001	      0.29603910	      0.69449337	      5.64783793	    -13.94343210	      3.24545864	      0.05664394	      1.35120504	      1.99617921	     -6.12352869	     -2.33984980	     -4.11377883	     -8.44017783	      3.95758612	      0.06907291	     12.79403406	      5.17924560	     -6.12352869	     -7.79251823	      3.70777756	     -4.02693261	     -6.14395648	    -14.25383203	     26.80572576	     26.35687363	     60.97671142	      1.76289522	    -11.90037041	     35.98241184	     21.92513299	     60.70231728
      0.01666670	     -1.06016185	     -3.68570634	    -49.14115319	      0.96426186	      0.94050305	      0.29498994	      0.59948100	      3.98032221	    -17.78751844	      3.46416696	      0.06046112	      3.83174137	      9.45875619	     -6.39885135	     -2.60943854	     -2.78795387	     -9.41067219	      3.18050267	      0.05551024	     11.62817530	      3.78238399	     -6.39885135	     -7.19263903	      2.69954419	     -4.61026814	     -6.43736324	    -15.36428932	     29.68108509	     27.17097512	     61.02380797	      2.52202467	    -12.50108313	     39.57176610	     22.24543489	     61.53533432
      0.03333330	     -1.10481644	     -2.88873302	    -49.70658137	      0.96349588	      0.93740511	      0.29530499	      1.56951263	      3.33393863	    -19.05582338	      4.07869281	      0.07118662	      5.14000403	     11.25095065	     -7.10799130	     -1.76692810	     -2.19443557	    -10.41750395	      3.20952292	      0.05601674	     11.34514271	      2.81563264	     -7.10799130	     -6.04004139	      2.14168317	     -4.39432552	     -6.23063855	    -16.05577198	     32.14023570	     27.51409064	     57.97502399	      3.43374973	    -12.84456742	     48.27784498	     21.05094954	     54.40212046
      0.05000000	     -1.23139053	     -2.57912639	    -49.79189610	      0.96276245	      0.93802859	      0.29530242	      2.07521792	      3.17344293	    -20.53807162	      4.15610012	      0.07253763	      5.48003258	     13.18275450	     -7.15171468	     -1.44431209	     -2.00299076	    -10.48455566	      2.81604267	      0.04914922	     10.93036478	      2.24294738	     -7.15171468	     -5.36338221	      1.96826185	     -4.67387962	     -6.41871159	    -16.12060480	     31.50546638	     27.61000446	     58.39105592	      3.46214662	    -12.67001721	     49.38347350	     20.51745377	     54.32230809
      0.06666670	     -1.59592564	     -2.06441253	    -49.80310161	      0.96170694	      0.93702518	      0.29539143	      2.86665771	      3.09155734	    -21.52127464	      4.36986538	      0.07626854	      6.20437686	     14.51883843	     -7.27207517	     -0.85340505	     -1.89465671	    -10.75207414	      2.63749953	      0.04603305	     10.98549922	      2.05573583	     -7.27207517	     -4.62725498	      1.82255058	     -4.73921142	     -6.85981401	    -15.92235120	     29.86751199	     27.90602357	     59.31947507	      3.33673204	    -12.45861569	     48.21679049	     20.36585448	     55.34769119
      0.08333330	     -1.68561879	     -1.77655605	    -49.90071725	      0.96059652	      0.93420805	      0.29655603	      3.18107500	      3.04266659	    -21.73064666	      4.45834580	      0.07781281	      6.50691156	     15.08254148	     -7.42000148	     -0.51657327	     -1.82898045	    -11.27855948	      2.66187740	      0.04645852	     11.22892100	      2.40963855	     -7.42000148	     -4.11453787	      1.57704095	     -4.30288120	     -7.61859226	    -15.77885217	     27.95059448	     28.67429249	     61.26685605	      3.97783107	    -12.58798764	     52.51502866	     20.11856201	     48.47211773
      0.10000000	     -1.75121096	     -1.47506962	    -49.95939132	      0.96129183	      0.93538066	      0.29645635	      3.44488785	      2.87271053	    -22.10968440	      4.51583813	      0.07881624	      7.01766668	     16.64766455	     -7.44664403	     -0.12523919	     -1.74344248	    -11.62236783	      2.69279549	      0.04699815	     11.18696048	      2.57332449	     -7.44664403	     -3.69881604	      1.36043095	     -4.38672031	     -7.82310126	    -15.80968535	     27.78068693	     29.27154787	     61.59753860	      3.62538678	    -12.58294473	     50.07295154	     20.48746554	     51.19071895
      0.11666670	     -1.83776872	     -1.16115211	    -49.85332529	      0.95881514	      0.93386141	      0.29632499	      3.76397243	      2.73222941	    -22.42913649	      4.58718478	      0.08006148	      7.51551028	     17.95312629	     -7.46433681	      0.30363897	     -1.66163536	    -11.73354661	      2.81729653	      0.04917110	     11.32192539	      2.69938442	     -7.46433681	     -3.33782416	      1.12094942	     -4.58326091	     -7.78419123	    -15.85820872	     28.37997821	     29.67582829	     62.25249889	      3.52479463	    -12.73898199	     48.95936517	     20.79280367	     52.47587555
      0.13333330	     -1.85322044	     -1.07496065	    -49.93562366	      0.95998599	      0.93352919	      0.29707049	      3.82307105	      2.75067465	    -22.18164434	      4.56185183	      0.07961933	      7.52730624	     18.24274623	     -7.47259713	      0.33070815	     -1.63438491	    -12.23671676	      2.84887629	      0.04972227	     11.59478752	      3.23484333	     -7.47259713	     -3.23347455	      1.02124221	     -4.58823918	     -7.68497319	    -15.94953542	     28.92061746	     30.01024079	     62.94644872	      3.46125567	    -12.85390310	     48.51023241	     21.04886233	     52.37046794
      0.15000000	     -1.86604906	     -0.94919000	    -49.86263361	      0.95826589	      0.93603338	      0.29790265	      3.85366813	      2.75667318	    -21.96199332	      4.40699915	      0.07691665	      7.56329367	     18.69661919	     -7.47738279	      0.46002917	     -1.63080501	    -12.50154186	      2.87130423	      0.05011371	     11.46296189	      3.41284057	     -7.47738279	     -3.12604074	      0.86124606	     -4.60356995	     -7.58182312	    -15.90363824	     29.38393822	     30.09225281	     63.38220874	      3.49030073	    -12.98166584	     48.27851127	     21.18866647	     52.20529914
      0.16666670	     -1.83651410	     -0.88774027	    -49.81546862	      0.95979941	      0.93573418	      0.29804996	      3.90235843	      2.78540969	    -21.74582330	      4.32522573	      0.07548943	      7.21510567	     18.69423134	     -7.48761639	      0.44316613	     -1.57682147	    -12.62163658	      2.84732377	      0.04969517	     11.18110439	      3.53414916	     -7.48761639	     -2.99090298	      0.79355478	     -4.50704565	     -7.73986323	    -15.79973896	     28.84463234	     30.20720391	     64.48849364	      4.01488430	    -13.21077801	     52.97651566	     21.08225871	     44.28234943
      0.18333330	     -1.79518989	     -0.85058768	    -49.84396888	      0.95876245	      0.93596096	      0.29781310	      3.87319959	      2.74418143	    -21.79225266	      4.20852869	      0.07345268	      6.97480383	     19.04213617	     -7.49009315	      0.49682438	     -1.55944953	    -12.92951119	      2.94565365	      0.05141135	     11.00506889	      3.81396066	     -7.49009315	     -2.95202373	      0.69701149	     -4.68497723	     -7.59442845	    -15.84854664	     29.38441042	     30.32344784	     64.61075215	      3.74151968	    -13.22638642	     51.65785526	     21.09959016	     46.06557003
      0.20000000	     -1.79943877	     -0.76594192	    -49.89959843	      0.95898170	      0.93432875	      0.29758438	      3.90067739	      2.61533784	    -21.94878656	      4.15157252	      0.07245861	      6.79761946	     19.11957908	     -7.49283740	      0.62164055	     -1.52740405	    -13.01398475	      3.09173035	      0.05396087	     10.84478794	      3.91729936	     -7.49283740	     -2.82210864	      0.62326919	     -4.79615618	     -7.49645139	    -15.92456146	     29.92872296	     30.47529154	     64.50562130	      3.56147308	    -13.27660670	     51.36758714	     21.13527985	     46.93216784
      0.21666670	     -1.84099963	     -0.69772231	    -50.00724681	      0.95825317	      0.93440970	      0.29759958	      3.97206045	      2.59241873	    -21.89047624	      4.08078530	      0.07122314	      6.52182825	     18.93977744	     -7.49357017	      0.72549882	     -1.51503896	    -13.11419137	      3.15405084	      0.05504857	     10.60435772	      3.85314438	     -7.49357017	     -2.80720506	      0.59975562	     -4.76190875	     -7.49286695	    -15.85593156	     29.57590050	     30.67290715	     64.23533151	      3.45746499	    -13.27089626	     50.73921846	     21.17058060	     47.54257492
